<svg xmlns="http://www.w3.org/2000/svg" width="35" height="41" viewBox="0 0 35 41" fill="none">
										<path fill-rule="evenodd" clip-rule="evenodd" d="M20.9612 14.7678C22.1917 14.157 23.757 13.2576 25.3245 12.0253C25.6549 12.7088 25.6914 13.3051 25.5208 13.7865C25.4001 14.1258 25.1726 14.421 24.8739 14.6558C24.5503 14.9094 24.1458 15.0945 23.6989 15.1943C22.8509 15.3845 21.8606 15.2737 20.9612 14.7678ZM21.1746 21.0272L22.8032 21.964C19.4778 23.8201 18.5736 27.2666 17.4995 30.6232C16.4258 27.2666 15.5215 23.8198 12.1962 21.964L13.8248 21.0272C14.148 20.9055 14.3559 20.5907 14.3395 20.2469C14.1901 17.1031 15.0426 15.7127 16.1927 14.8401C16.6049 14.5275 17.0552 14.3706 17.4995 14.3706C17.9438 14.3706 18.3941 14.5275 18.8063 14.8401C19.956 15.7131 20.8085 17.1031 20.6595 20.2469C20.6431 20.5907 20.8517 20.9055 21.1746 21.0272ZM17.4999 0.5C19.3825 0.550437 21.2699 0.914252 22.9079 1.62223C24.0423 2.11325 25.1003 2.76151 26.0589 3.53698C26.4917 3.88708 26.8481 4.2253 27.2407 4.61471C28.2995 4.65105 29.8469 3.47987 30.5653 2.38398C29.3288 6.42006 23.6873 11.186 19.7817 13.0099C19.7802 13.0092 19.7791 13.0084 19.778 13.0077C19.0771 12.4747 18.2887 12.2081 17.5002 12.2081C16.7118 12.2081 15.9234 12.4747 15.2225 13.0077C15.2214 13.0084 15.2203 13.0095 15.2188 13.0099C11.3124 11.186 5.67127 6.41969 4.43481 2.38398C5.15322 3.47987 6.70028 4.65142 7.75908 4.61471C8.15162 4.22567 8.50803 3.88708 8.94079 3.53698C9.89904 2.76151 10.9575 2.11325 12.0919 1.62223C13.7302 0.914252 15.6173 0.550437 17.4999 0.5ZM14.0386 14.7678C12.8084 14.157 11.2428 13.2576 9.67521 12.0253C9.34487 12.7088 9.30837 13.3051 9.47857 13.7865C9.59923 14.1258 9.82679 14.421 10.1255 14.6558C10.4495 14.9094 10.8539 15.0945 11.3009 15.1943C12.1489 15.3845 13.1395 15.2737 14.0386 14.7678Z" fill="white"></path>
										<path fill-rule="evenodd" clip-rule="evenodd" d="M27.0414 10.5156C27.9043 9.64851 28.6648 8.68872 29.276 7.83203L29.5866 8.41391C30.5862 10.4054 31.1057 12.3892 31.1057 14.6214L31.1035 18.1639L31.1221 20C31.1944 24.5082 32.1742 29.069 34.3931 33.2431L29.7505 29.5152L26.4657 34.8233L23.0148 31.5883L17.4999 40.5001L11.985 31.5887L8.53413 34.8237L5.24934 29.5156L0.606689 33.2435C2.8256 29.0694 3.80508 24.5082 3.8777 20.0004L3.89632 18.1642L3.89409 14.6218C3.89409 12.3892 4.41325 10.4058 5.41321 8.41428L5.72344 7.8324C6.33496 8.68872 7.09508 9.64851 7.95799 10.516L7.68835 11.0734C7.16472 12.1559 6.99155 13.3664 7.39935 14.5179C7.66228 15.2593 8.14197 15.8953 8.76057 16.3808C9.36129 16.8521 10.0722 17.17 10.8164 17.3368C11.3013 17.4455 11.7951 17.4904 12.286 17.4752C12.1716 18.1216 12.1213 18.7917 12.1184 19.4749L7.739 21.9937L11.1184 23.8799C11.3884 24.0309 11.6458 24.2033 11.8871 24.3966C14.6732 26.8876 16.3484 34.257 17.4995 37.8566C18.6507 34.257 20.3259 26.8876 23.112 24.3966C23.3533 24.2037 23.6107 24.0309 23.8807 23.8799L27.2601 21.9937L22.8807 19.4749C22.8774 18.7917 22.8274 18.1216 22.7131 17.4752C23.204 17.4904 23.6978 17.4455 24.1827 17.3368C24.9268 17.17 25.6378 16.8521 26.2385 16.3808C26.8571 15.8953 27.3368 15.2593 27.5997 14.5179C28.0075 13.3668 27.8343 12.1563 27.3107 11.0734L27.0414 10.5156Z" fill="white"></path>
									</svg>