<svg xmlns="http://www.w3.org/2000/svg" width="43" height="43" viewBox="0 0 43 43" fill="none">
											<path fill-rule="evenodd" clip-rule="evenodd" d="M17.2514 5.30398C15.0907 6.43727 13.3231 7.39637 13.3235 7.43542C13.3245 7.53604 18.509 10.1801 18.693 10.1736C18.7766 10.1709 19.3839 9.88929 20.0423 9.54828L21.2396 8.92818L22.5472 9.60502L23.8548 10.282L25.9961 9.31311C29.2226 7.85311 29.5577 7.69311 29.5052 7.63944C29.4356 7.56806 28.2784 6.94212 25.1385 5.27751C23.6211 4.473 22.1483 3.68428 21.8655 3.52458C21.5826 3.36472 21.3128 3.23632 21.2656 3.2388C21.2183 3.24129 19.412 4.1707 17.2514 5.30398ZM7.77495 10.2453L5.52584 11.4153V16.5497C5.52584 19.3736 5.55532 21.684 5.59163 21.684C5.62795 21.684 6.73434 21.201 8.05061 20.6105L10.4439 19.5371V14.1252L11.6135 14.7668C12.5147 15.2607 13.4166 15.7536 14.3188 16.2456L15.8545 17.0829L16.5378 16.7716C16.9664 16.5761 17.3942 16.3788 17.821 16.1795C18.1508 16.0248 18.9605 15.6575 19.6203 15.3633C20.2801 15.0689 20.8908 14.7727 20.9774 14.7053C21.0924 14.6157 19.6897 13.8351 15.7891 11.8181C12.849 10.2977 10.3491 9.05849 10.2338 9.06449C10.1185 9.07049 9.01206 9.60175 7.77495 10.2453ZM29.9103 10.5738C28.3785 11.2701 27.1241 11.8677 27.1227 11.9017C27.1214 11.9358 27.9562 12.4357 28.978 13.0124C29.9998 13.5894 30.8359 14.0922 30.8359 14.1301C30.8359 14.168 29.9317 14.6091 28.8267 15.1107C27.7215 15.6122 24.9282 16.8826 22.6191 17.9337L14.882 21.4553C12.9358 22.3413 11.1814 23.1397 10.9835 23.23C7.00811 25.0422 5.91551 25.545 5.76548 25.6313C5.61458 25.7182 5.58045 26.223 5.55358 28.7569L5.52148 31.7791L7.53284 32.8111L9.54408 33.843L12.333 32.5756C13.867 31.8786 15.122 31.2719 15.122 31.227C15.122 31.1823 14.8385 30.9966 14.4922 30.8136C14.1458 30.6306 13.4305 30.2259 12.9027 29.9136C12.375 29.6014 11.8488 29.315 11.7332 29.2769C11.6177 29.2391 11.5249 29.1729 11.5268 29.1296C11.5287 29.0864 12.7568 28.4991 14.2558 27.8241C17.1672 26.5133 19.3952 25.5031 24.1785 23.3249C26.3173 22.3511 28.4567 21.3782 30.5959 20.4054C32.4762 19.5507 34.6624 18.5527 35.4541 18.1874L36.8935 17.5232L36.9254 14.4666L36.9576 11.4101L34.9176 10.3559C33.7955 9.77598 32.8366 9.30302 32.7862 9.30477C32.736 9.30638 31.442 9.87742 29.9103 10.5738ZM36.3471 21.6008C36.0464 21.7486 35.4528 22.0256 35.0277 22.2159C34.6026 22.4064 33.796 22.7729 33.235 23.0305L32.2155 23.4988L32.1922 26.1822C32.1794 27.658 32.1255 28.859 32.0722 28.8513C31.9516 28.8331 30.0406 27.8462 28.1198 26.8097C26.7333 26.0617 26.6462 26.032 26.3204 26.1945C26.1321 26.2886 25.0063 26.7968 23.8188 27.3244C22.6312 27.852 21.6209 28.3181 21.5732 28.3602C21.526 28.4023 23.9159 29.7066 26.8846 31.2591L32.2822 34.0816L34.5879 32.8804C35.856 32.22 36.9342 31.6174 36.9839 31.5417C37.0956 31.3713 37.086 21.3084 36.9741 21.3221C36.9298 21.3274 36.6477 21.453 36.3471 21.6008ZM23.5788 33.412C23.1788 33.5851 22.779 33.7586 22.3793 33.9322C21.1722 34.4581 21.4087 34.4755 19.9726 33.7557C19.0161 33.2763 18.6038 33.1283 18.4249 33.2001C18.2907 33.2539 17.1353 33.7773 15.8574 34.3632C14.5795 34.9491 13.4896 35.4284 13.4355 35.4284C12.8992 35.4284 13.7907 35.9646 17.2302 37.7117L21.2639 39.7605L22.9612 38.9169C23.8946 38.4528 25.7774 37.5234 27.1452 36.8518C28.5128 36.1799 29.6151 35.6127 29.5944 35.5915C29.5737 35.5701 28.4276 34.9774 27.0476 34.2746L24.5384 32.9967L23.5788 33.412Z" fill="white"></path>
										</svg>