<svg xmlns="http://www.w3.org/2000/svg" width="25" height="25" viewBox="0 0 25 25" fill="none">
											<g clip-path="url(#clip0_203_612)">
												<path fill-rule="evenodd" clip-rule="evenodd" d="M21.4435 3.13683C21.7263 3.01567 22.0358 2.97389 22.3399 3.01582C22.6439 3.05775 22.9313 3.18187 23.1723 3.37525C23.4132 3.56863 23.5988 3.8242 23.7097 4.11537C23.8207 4.40654 23.853 4.72266 23.8032 5.03083L21.2078 21.0553C20.956 22.601 19.2899 23.4875 17.8972 22.7175C16.7322 22.0734 15.002 21.0809 13.4457 20.0454C12.6675 19.5271 10.2838 17.8672 10.5768 16.6861C10.8285 15.6762 14.8338 11.8812 17.1225 9.6249C18.0208 8.73847 17.6111 8.22711 16.5503 9.04248C13.916 11.0669 9.68649 14.1456 8.28809 15.0122C7.05449 15.7763 6.41136 15.9068 5.64236 15.7763C4.23939 15.5387 2.93827 15.1706 1.87631 14.7222C0.441299 14.1165 0.511104 12.1083 1.87517 11.5236L21.4435 3.13683Z" fill="white"></path>
											</g>
											<defs>
												<clipPath id="clip0_203_612">
													<rect width="24" height="24" fill="white" transform="translate(0.325928 0.5)"></rect>
												</clipPath>
											</defs>
										</svg>